<svg width="24" height="24" viewBox="0 0 24 24" fill="none" xmlns="http://www.w3.org/2000/svg">
<g clip-path="url(#clip0_560_17555)">
<path d="M23.2969 1.45312H14.8125C14.4241 1.45312 14.1094 1.76788 14.1094 2.15625V4.96875C14.1094 5.35712 14.4241 5.67188 14.8125 5.67188H15.5156V7.07813H7.78125C7.39288 7.07813 7.07813 7.39288 7.07813 7.78125V10.5938C7.07813 10.9821 7.39288 11.2969 7.78125 11.2969H8.48438V12.7031H0.703125C0.314758 12.7031 0 13.0179 0 13.4063V16.2188C0 16.6071 0.314758 16.9219 0.703125 16.9219H1.40625V21.8438C1.40625 22.2321 1.72101 22.5469 2.10938 22.5469H9.1875C9.3468 22.5469 9.50134 22.4929 9.62585 22.3934L23.7352 11.1434C23.9026 11.0101 24 10.8078 24 10.5938C24 10.1301 24 2.65448 24 2.15625C24 1.76788 23.6852 1.45312 23.2969 1.45312ZM15.5156 2.85938H22.5938V4.26563H15.5156V2.85938ZM8.48438 8.48438H15.5156V9.89063H8.48438V8.48438ZM1.40625 14.1094H8.48438V15.5156H1.40625V14.1094ZM8.94159 21.1406H2.8125V16.9219H9.1875C9.57587 16.9219 9.89063 16.6071 9.89063 16.2188C9.89063 15.215 9.89063 12.2985 9.89063 11.2969H16.2188C16.6071 11.2969 16.9219 10.9821 16.9219 10.5938C16.9219 9.58997 16.9219 6.67346 16.9219 5.67188H22.5938V10.2552L8.94159 21.1406Z" fill="currentColor"/>
</g>
<defs>
<clipPath id="clip0_560_17555">
<rect width="24" height="24" fill="white"/>
</clipPath>
</defs>
</svg>
