<svg width="24" height="24" viewBox="0 0 24 24" fill="none" xmlns="http://www.w3.org/2000/svg">
<path fill-rule="evenodd" clip-rule="evenodd" d="M17.657 8.86648C18.4381 8.08544 18.4381 6.81911 17.657 6.03806C16.876 5.25701 15.6096 5.25701 14.8286 6.03806L11.9998 8.86683L9.17105 6.03807C8.39 5.25702 7.12367 5.25702 6.34262 6.03807C5.56157 6.81912 5.56157 8.08545 6.34262 8.8665L9.17138 11.6953L6.3433 14.5233C5.56225 15.3044 5.56225 16.5707 6.3433 17.3518C7.12434 18.1328 8.39067 18.1328 9.17172 17.3518L11.9998 14.5237L14.8279 17.3518C15.609 18.1328 16.8753 18.1328 17.6563 17.3518C18.4374 16.5707 18.4374 15.3044 17.6563 14.5234L14.8282 11.6953L17.657 8.86648Z" fill="currentColor"/>
</svg>
